<?xml version="1.0" standalone="no"?>
<!DOCTYPE svg PUBLIC "-//W3C//DTD SVG 20010904//EN"
 "http://www.w3.org/TR/2001/REC-SVG-20010904/DTD/svg10.dtd">
<svg version="1.0" xmlns="http://www.w3.org/2000/svg"
 width="400.000000pt" height="200.000000pt" viewBox="0 0 400.000000 200.000000"
 preserveAspectRatio="xMidYMid meet">

<g transform="translate(0.000000,200.000000) scale(0.100000,-0.100000)"
fill="#000000" stroke="none">
<path d="M0 1000 l0 -1000 2000 0 2000 0 0 1000 0 1000 -2000 0 -2000 0 0
-1000z m1129 324 c33 -9 69 -30 94 -53 l41 -38 -33 -42 c-37 -46 -58 -51 -105
-22 -93 58 -201 47 -276 -29 -58 -57 -81 -121 -82 -222 0 -162 84 -244 223
-218 29 6 57 14 60 18 4 4 11 35 15 70 l7 62 -46 0 c-25 0 -49 5 -52 10 -3 6
-3 30 1 55 l6 45 125 0 124 0 -5 -42 c-41 -311 -30 -281 -126 -319 -76 -30
-219 -37 -289 -14 -185 61 -260 310 -160 525 67 144 197 229 350 230 41 0 99
-7 128 -16z m2075 -18 c26 -15 50 -34 53 -42 6 -16 -31 -80 -54 -93 -11 -6
-36 1 -80 22 -59 27 -68 29 -104 18 -60 -18 -90 -92 -53 -132 9 -10 52 -32 96
-50 137 -55 182 -122 159 -238 -21 -103 -82 -176 -177 -208 -94 -32 -249 1
-308 65 -18 21 -18 22 19 66 21 26 45 46 54 46 10 0 32 -11 51 -25 45 -34 91
-45 137 -35 48 11 72 44 73 96 0 50 -16 66 -99 99 -94 36 -131 63 -152 109
-23 50 -24 96 -4 162 19 65 63 116 127 149 47 24 62 26 134 23 66 -4 90 -9
128 -32z m-1368 -13 c-3 -21 -6 -48 -6 -60 0 -22 -3 -23 -147 -25 l-148 -3 -7
-65 c-4 -36 -10 -80 -13 -97 l-6 -33 114 0 114 0 -4 -32 c-10 -84 -1 -78 -123
-78 -61 0 -110 -1 -110 -2 -1 -2 -7 -47 -14 -100 l-12 -98 143 0 143 0 0 -29
c0 -16 -3 -43 -6 -60 l-6 -31 -225 0 -225 0 6 28 c3 15 24 183 47 375 l42 347
225 0 225 0 -7 -37z m350 -203 c46 -129 83 -237 84 -240 0 -3 6 6 13 20 35 67
252 427 267 443 13 15 30 17 91 15 l74 -3 -45 -370 -45 -370 -68 -3 c-81 -4
-77 -29 -42 249 14 111 24 209 23 216 -2 8 -54 -72 -117 -178 -114 -190 -131
-209 -182 -209 -35 0 -54 34 -119 223 -35 102 -66 185 -68 183 -2 -3 -14 -96
-28 -208 -13 -111 -26 -220 -30 -240 l-6 -38 -70 0 -70 0 6 28 c3 15 24 184
47 375 l42 348 81 -3 80 -3 82 -235z"/>
</g>
</svg>
